<mxfile host="app.diagrams.net" agent="Mozilla/5.0 (Macintosh; Intel Mac OS X 10.15; rv:131.0) Gecko/20100101 Firefox/131.0" version="24.7.17">
  <diagram name="Page-1" id="K4KIPDYEgw4nUw5cdc4V">
    <mxGraphModel dx="1434" dy="822" grid="1" gridSize="10" guides="1" tooltips="1" connect="1" arrows="1" fold="1" page="1" pageScale="1" pageWidth="827" pageHeight="1169" math="0" shadow="0">
      <root>
        <mxCell id="0" />
        <mxCell id="1" parent="0" />
        <mxCell id="DL9V_pkVWsJwyDq02fDM-10" style="edgeStyle=orthogonalEdgeStyle;rounded=0;orthogonalLoop=1;jettySize=auto;html=1;entryX=0;entryY=0.5;entryDx=0;entryDy=0;exitX=0.063;exitY=0.5;exitDx=0;exitDy=0;exitPerimeter=0;sketch=1;curveFitting=1;jiggle=2;strokeWidth=2;" edge="1" parent="1" source="DL9V_pkVWsJwyDq02fDM-1" target="DL9V_pkVWsJwyDq02fDM-8">
          <mxGeometry relative="1" as="geometry">
            <Array as="points">
              <mxPoint x="70" y="220" />
              <mxPoint x="70" y="360" />
            </Array>
          </mxGeometry>
        </mxCell>
        <mxCell id="DL9V_pkVWsJwyDq02fDM-13" value="clone" style="edgeLabel;html=1;align=center;verticalAlign=middle;resizable=0;points=[];fontSize=15;" vertex="1" connectable="0" parent="DL9V_pkVWsJwyDq02fDM-10">
          <mxGeometry x="0.0179" y="-2" relative="1" as="geometry">
            <mxPoint as="offset" />
          </mxGeometry>
        </mxCell>
        <mxCell id="DL9V_pkVWsJwyDq02fDM-1" value="&lt;div style=&quot;font-size: 15px;&quot;&gt;GitHub&lt;/div&gt;&lt;div style=&quot;font-size: 15px;&quot;&gt;(remote repository&lt;br style=&quot;font-size: 15px;&quot;&gt;&lt;/div&gt;" style="ellipse;shape=cloud;whiteSpace=wrap;html=1;sketch=1;curveFitting=1;jiggle=2;strokeWidth=2;fontSize=15;" vertex="1" parent="1">
          <mxGeometry x="146" y="180" width="180" height="80" as="geometry" />
        </mxCell>
        <mxCell id="DL9V_pkVWsJwyDq02fDM-6" value="" style="shape=umlActor;verticalLabelPosition=bottom;verticalAlign=top;html=1;outlineConnect=0;strokeWidth=2;sketch=1;curveFitting=1;jiggle=2;fillColor=#d5e8d4;strokeColor=#82b366;" vertex="1" parent="1">
          <mxGeometry x="225" y="410" width="30" height="60" as="geometry" />
        </mxCell>
        <mxCell id="DL9V_pkVWsJwyDq02fDM-7" value="" style="shape=umlActor;verticalLabelPosition=bottom;verticalAlign=top;html=1;outlineConnect=0;strokeWidth=2;sketch=1;curveFitting=1;jiggle=2;fillColor=#d5e8d4;strokeColor=#82b366;" vertex="1" parent="1">
          <mxGeometry x="225" y="110" width="30" height="60" as="geometry" />
        </mxCell>
        <mxCell id="DL9V_pkVWsJwyDq02fDM-8" value="&lt;div style=&quot;font-size: 15px;&quot;&gt;RStudio&lt;/div&gt;&lt;div style=&quot;font-size: 15px;&quot;&gt;(local repository)&lt;br style=&quot;font-size: 15px;&quot;&gt;&lt;/div&gt;" style="rounded=0;whiteSpace=wrap;html=1;sketch=1;curveFitting=1;jiggle=2;strokeWidth=2;fontSize=15;" vertex="1" parent="1">
          <mxGeometry x="170" y="330" width="150" height="60" as="geometry" />
        </mxCell>
      </root>
    </mxGraphModel>
  </diagram>
</mxfile>
